<?xml version="1.0" encoding="utf-8"?>
<!-- Generator: Adobe Illustrator 24.0.1, SVG Export Plug-In . SVG Version: 6.00 Build 0)  -->
<svg version="1.1" id="Layer_1" xmlns="http://www.w3.org/2000/svg" xmlns:xlink="http://www.w3.org/1999/xlink" x="0px" y="0px"
	 viewBox="0 0 1727 252" style="enable-background:new 0 0 1727 252;" xml:space="preserve">
<style type="text/css">
	.st0{fill:#550011;stroke:#000000;stroke-miterlimit:10;}
	.st1{fill:none;stroke:#736357;stroke-width:3;stroke-miterlimit:10;}
	.st2{fill:#6A0031;}
	.st3{fill:#7F1D00;stroke:#603813;stroke-miterlimit:10;}
	.st4{fill:none;stroke:#000000;stroke-miterlimit:10;}
	.st5{fill:#00D474;stroke:#00FF00;stroke-miterlimit:10;}
	.st6{fill:#FFFFFF;stroke:#FFFFFF;stroke-miterlimit:10;}
	.st7{fill:#15D9FF;stroke:#00FFFF;stroke-miterlimit:10;}
</style>
<g id="XMLID_11_">
	<polygon id="XMLID_13_" class="st0" points="437.08,127.83 545.63,72.42 436.54,16.87 328,72.42 	"/>
	<path id="XMLID_25_" class="st0" d="M545.09,72.42c1.34-0.94,8.86,5.37,10.2,14.22c1.21,8.18-4.03,12.48-1.48,21.06
		c1.21,3.89,3.35,6.98,2.82,7.51c-0.94,0.94-6.17-5.77-8.05-4.56c-1.61,1.07,0.67,7.11-0.27,7.51c-0.8,0.4-4.03-3.09-5.1-7.78
		c-1.74-7.65,4.29-11.14,5.1-21.06C548.85,79.53,543.88,73.23,545.09,72.42z"/>
</g>
<line id="XMLID_29_" class="st1" x1="586.15" y1="17.28" x2="586.15" y2="235.3"/>
<g id="XMLID_30_">
	<path id="XMLID_94_" class="st2" d="M625.19,93.89V40.62h8.32c4.83,0,8.32,0.27,10.73,0.94c3.22,0.81,5.77,2.42,7.65,4.7
		c1.88,2.28,2.82,4.96,2.82,8.18c0,2.01-0.4,3.89-1.21,5.5c-0.81,1.74-2.28,3.22-4.16,4.7c3.22,1.48,5.64,3.35,7.11,5.77
		c1.48,2.28,2.28,4.96,2.28,8.05c0,2.95-0.81,5.77-2.28,8.18s-3.49,4.29-5.9,5.5c-2.42,1.21-5.77,1.74-10.06,1.74L625.19,93.89
		L625.19,93.89z M635.39,50.28v11.27h2.28c2.42,0,4.29-0.54,5.5-1.61c1.21-1.07,1.74-2.42,1.74-4.29c0-1.74-0.54-2.95-1.74-3.89
		s-2.82-1.48-5.23-1.48H635.39L635.39,50.28z M635.39,70.54v13.69h2.55c4.29,0,7.11-0.54,8.45-1.61c1.48-1.07,2.28-2.68,2.28-4.7
		c0-2.28-0.8-4.16-2.55-5.37c-1.74-1.34-4.56-2.01-8.59-2.01H635.39z"/>
	<path id="XMLID_98_" class="st2" d="M667.19,39.41h9.79V58.6c1.88-1.74,3.89-2.95,5.77-3.76c1.88-0.81,3.89-1.21,5.9-1.21
		c3.89,0,7.25,1.34,9.79,4.03c2.28,2.28,3.35,5.77,3.35,10.2v26.03h-9.79V76.58c0-4.56-0.27-7.65-0.67-9.26
		c-0.4-1.61-1.21-2.82-2.28-3.62c-1.07-0.81-2.28-1.21-3.89-1.21c-2.01,0-3.76,0.67-5.23,2.01c-1.48,1.34-2.42,3.22-2.95,5.37
		c-0.27,1.21-0.4,3.89-0.4,8.18v15.7h-9.79L667.19,39.41L667.19,39.41z"/>
	<path id="XMLID_100_" class="st2" d="M740.58,54.58h9.79v39.31h-9.79v-4.16c-1.88,1.74-3.76,3.22-5.77,3.89
		c-2.01,0.81-4.03,1.21-6.31,1.21c-5.1,0-9.53-2.01-13.28-5.9c-3.76-3.89-5.64-8.86-5.64-14.76c0-6.04,1.74-11,5.37-14.89
		c3.62-3.89,7.92-5.77,13.15-5.77c2.28,0,4.56,0.4,6.71,1.34c2.15,0.81,4.03,2.28,5.77,4.03V54.58L740.58,54.58z M730.25,62.63
		c-3.09,0-5.64,1.07-7.65,3.22c-2.01,2.15-3.09,4.96-3.09,8.18c0,3.35,1.07,6.31,3.09,8.32c2.01,2.28,4.56,3.22,7.65,3.22
		c3.09,0,5.77-1.07,7.78-3.22c2.01-2.15,3.09-4.96,3.09-8.45c0-3.35-1.07-6.31-3.09-8.32C736.02,63.7,733.33,62.63,730.25,62.63z"/>
	<path id="XMLID_103_" class="st2" d="M760.44,54.58h9.93v18.92c0,3.76,0.27,6.31,0.8,7.78c0.54,1.48,1.34,2.55,2.42,3.35
		c1.21,0.81,2.55,1.21,4.16,1.21c1.74,0,3.09-0.4,4.29-1.21c1.21-0.81,2.01-1.88,2.55-3.49c0.4-1.21,0.67-3.62,0.67-7.25V54.71h9.79
		v16.77c0,6.84-0.54,11.54-1.61,14.09c-1.34,3.09-3.22,5.5-5.77,7.11c-2.55,1.74-5.77,2.42-9.79,2.42c-4.29,0-7.78-0.94-10.47-2.82
		c-2.68-1.88-4.56-4.7-5.64-8.05c-0.8-2.42-1.21-6.71-1.21-13.01L760.44,54.58L760.44,54.58z"/>
	<path id="XMLID_105_" class="st2" d="M806.05,40.09h9.79v14.49h5.77v8.45h-5.77v30.86h-9.79V63.03h-5.1v-8.45h5.1V40.09z"/>
	<path id="XMLID_107_" class="st2" d="M827.12,39.41h9.79V58.6c1.88-1.74,3.89-2.95,5.77-3.76s3.89-1.21,5.9-1.21
		c3.89,0,7.25,1.34,9.79,4.03c2.28,2.28,3.35,5.77,3.35,10.2v26.03h-9.79V76.58c0-4.56-0.27-7.65-0.67-9.26s-1.21-2.82-2.28-3.62
		c-1.07-0.81-2.28-1.21-3.89-1.21c-2.01,0-3.76,0.67-5.23,2.01c-1.48,1.34-2.42,3.22-2.95,5.37c-0.27,1.21-0.4,3.89-0.4,8.18v15.7
		h-9.53L827.12,39.41L827.12,39.41z"/>
	<path id="XMLID_109_" class="st2" d="M875.42,38.34c1.74,0,3.22,0.67,4.43,1.88c1.21,1.21,1.88,2.68,1.88,4.56
		s-0.67,3.22-1.74,4.56c-1.21,1.21-2.68,1.88-4.43,1.88c-1.74,0-3.22-0.67-4.43-1.88c-1.21-1.21-1.88-2.68-1.88-4.7
		c0-1.74,0.67-3.22,1.74-4.43C872.07,39.01,873.54,38.34,875.42,38.34z M870.46,54.58h9.79v39.31h-9.79V54.58z"/>
	<path id="XMLID_112_" class="st2" d="M889.37,39.41h9.79v31.4l14.49-16.23H926L909.1,73.36l18.92,20.53h-12.21l-16.77-18.11v17.98
		h-9.79L889.37,39.41L889.37,39.41z"/>
	<path id="XMLID_114_" class="st2" d="M968.27,34.85h11l22,57.29H990l-4.43-11.81h-23.35l-4.7,11.81h-11.27L968.27,34.85z
		 M973.77,50.01l-7.65,19.72h15.43L973.77,50.01z"/>
	<path id="XMLID_117_" class="st2" d="M1049.98,58.33l-8.86,4.83c-1.74-1.74-3.35-2.95-4.83-3.62c-1.48-0.67-3.49-1.07-5.64-1.07
		c-4.03,0-7.11,1.07-9.66,3.49c-2.55,2.42-3.62,5.37-3.62,9.12c0,3.62,1.07,6.44,3.49,8.72c2.42,2.28,5.5,3.35,9.39,3.35
		c4.83,0,8.45-1.61,11.14-4.83l8.45,5.64c-4.56,5.9-10.87,8.86-19.19,8.86c-7.38,0-13.28-2.15-17.58-6.57
		c-4.16-4.43-6.44-9.53-6.44-15.43c0-4.16,1.07-7.92,3.09-11.27c2.01-3.35,4.83-6.17,8.59-8.05c3.62-1.88,7.78-2.95,12.34-2.95
		c4.16,0,7.92,0.81,11.27,2.55C1045.01,52.83,1047.83,55.25,1049.98,58.33z"/>
	<path id="XMLID_120_" class="st2" d="M1090.9,49.88h10.6v42.4h-10.6v-4.43c-2.01,1.88-4.16,3.35-6.31,4.16s-4.29,1.21-6.84,1.21
		c-5.5,0-10.2-2.15-14.22-6.44c-4.03-4.16-6.04-9.53-6.04-15.83c0-6.44,1.88-11.81,5.77-16.1c3.89-4.16,8.59-6.31,14.09-6.31
		c2.55,0,4.83,0.4,7.11,1.48c2.28,0.94,4.29,2.42,6.17,4.29L1090.9,49.88L1090.9,49.88z M1079.63,58.6c-3.35,0-6.04,1.07-8.18,3.49
		c-2.15,2.28-3.35,5.37-3.35,8.86c0,3.62,1.07,6.71,3.35,8.99c2.15,2.42,4.83,3.49,8.18,3.49c3.35,0,6.17-1.07,8.32-3.49
		c2.15-2.28,3.35-5.37,3.35-9.12c0-3.62-1.07-6.71-3.35-8.99C1085.67,59.67,1082.98,58.6,1079.63,58.6z"/>
	<path id="XMLID_126_" class="st2" d="M1143.5,33.51h10.6v58.63h-10.6v-4.43c-2.01,1.88-4.16,3.35-6.31,4.16
		c-2.15,0.81-4.29,1.21-6.84,1.21c-5.5,0-10.2-2.15-14.22-6.44c-4.03-4.16-6.04-9.53-6.04-15.83c0-6.44,1.88-11.81,5.77-16.1
		c3.89-4.16,8.59-6.31,14.09-6.31c2.55,0,4.83,0.4,7.11,1.48c2.28,0.94,4.29,2.42,6.17,4.29L1143.5,33.51L1143.5,33.51z
		 M1132.36,58.6c-3.35,0-6.04,1.07-8.18,3.49c-2.15,2.28-3.35,5.37-3.35,8.86c0,3.62,1.07,6.71,3.35,8.99
		c2.15,2.42,4.83,3.49,8.18,3.49s6.17-1.07,8.32-3.49c2.15-2.28,3.35-5.37,3.35-9.12c0-3.62-1.07-6.71-3.35-8.99
		C1138.4,59.67,1135.58,58.6,1132.36,58.6z"/>
	<path id="XMLID_129_" class="st2" d="M1207.23,74.03h-34.21c0.4,2.95,1.88,5.37,4.03,7.11c2.15,1.88,4.83,2.68,8.18,2.68
		c4.03,0,7.38-1.34,10.2-4.16l8.99,4.16c-2.28,3.22-4.83,5.5-7.92,7.11c-3.09,1.61-6.84,2.28-11,2.28c-6.57,0-12.08-2.01-16.23-6.31
		c-4.16-4.16-6.31-9.39-6.31-15.7c0-6.44,2.01-11.81,6.31-16.1c4.16-4.16,9.39-6.44,15.7-6.44c6.71,0,12.08,2.15,16.23,6.44
		c4.16,4.16,6.31,9.93,6.31,16.91L1207.23,74.03z M1196.63,65.71c-0.67-2.42-2.01-4.29-4.16-5.77c-2.01-1.48-4.43-2.15-7.11-2.15
		c-2.95,0-5.64,0.81-7.78,2.55c-1.34,1.07-2.68,2.82-3.89,5.5h22.94V65.71z"/>
	<path id="XMLID_132_" class="st2" d="M1215.81,49.88h10.6v4.83c1.88-2.01,3.89-3.49,6.04-4.43c2.15-1.07,4.7-1.48,7.25-1.48
		c2.68,0,4.96,0.67,7.11,1.88c2.15,1.21,3.89,3.22,5.1,5.64c1.74-2.55,3.76-4.43,6.31-5.64c2.55-1.21,5.1-1.88,8.05-1.88
		c2.95,0,5.64,0.67,7.92,2.01c2.28,1.34,3.89,3.22,4.83,5.5c1.07,2.28,1.48,5.9,1.48,11v24.82h-10.87V70.68
		c0-4.83-0.54-8.05-1.88-9.79c-1.07-1.74-2.95-2.55-5.37-2.55c-1.88,0-3.35,0.54-4.83,1.61c-1.48,1.07-2.55,2.55-3.22,4.29
		c-0.67,1.74-1.07,4.83-1.07,8.72v19.19h-10.73V71.62c0-3.76-0.27-6.44-0.81-8.18c-0.54-1.74-1.34-2.95-2.55-3.76
		c-1.07-0.81-2.55-1.21-4.16-1.21c-1.88,0-3.35,0.54-4.83,1.61c-1.48,1.07-2.55,2.55-3.22,4.43c-0.67,1.88-1.07,4.83-1.07,8.99
		v18.65h-10.6L1215.81,49.88L1215.81,49.88z"/>
	<path id="XMLID_134_" class="st2" d="M1285.99,49.88h10.87l11,26.57l12.21-26.57h10.87l-26.57,57.83h-10.87l8.72-18.65
		L1285.99,49.88z"/>
	<path id="XMLID_136_" class="st2" d="M642.1,122.06c3.49,0,6.84,0.94,9.93,2.55c3.09,1.74,5.5,4.16,7.25,7.11
		c1.74,2.95,2.55,6.31,2.55,9.79c0,3.49-0.94,6.84-2.55,9.79c-1.74,3.09-4.16,5.37-7.11,7.25c-2.95,1.88-6.31,2.55-9.93,2.55
		c-5.37,0-9.93-1.88-13.69-5.77c-3.76-3.76-5.77-8.45-5.77-13.82c0-5.77,2.15-10.73,6.44-14.49
		C632.84,123.67,637.13,122.06,642.1,122.06z M642.23,130.79c-2.95,0-5.37,0.94-7.25,2.95c-1.88,2.01-2.95,4.56-2.95,7.78
		c0,3.22,0.94,5.9,2.95,7.92c1.88,2.01,4.29,2.95,7.25,2.95c2.95,0,5.37-0.94,7.38-2.95s2.95-4.56,2.95-7.78
		c0-3.22-0.94-5.77-2.95-7.78S645.18,130.79,642.23,130.79z"/>
	<path id="XMLID_139_" class="st2" d="M665.04,123h3.35c0-4.96,0.13-7.78,0.13-8.59c0.27-2.15,1.07-3.76,2.55-4.96
		s3.49-1.74,6.17-1.74c1.88,0,4.16,0.4,6.57,1.34v7.11c-1.34-0.4-2.55-0.54-3.35-0.54c-1.07,0-1.88,0.13-2.42,0.67
		c-0.4,0.27-0.54,0.94-0.54,2.15V123h5.9v7.92h-5.9v29.52h-9.39v-29.38h-3.35L665.04,123L665.04,123z"/>
	<path id="XMLID_141_" class="st2" d="M719.78,108.51h10.73c5.77,0,9.93,0.54,12.48,1.61s4.56,2.82,6.04,5.1
		c1.48,2.42,2.15,5.23,2.15,8.59c0,3.62-0.94,6.71-2.95,9.26c-1.88,2.42-4.56,4.16-7.92,5.1c-1.88,0.54-5.5,0.81-10.6,0.81v22.27
		h-10.06L719.78,108.51L719.78,108.51z M729.98,129.31h3.22c2.55,0,4.29-0.27,5.23-0.54c0.94-0.27,1.74-0.94,2.28-1.74
		c0.54-0.81,0.8-1.74,0.8-3.09c0-2.01-0.8-3.62-2.42-4.56c-1.21-0.67-3.22-1.07-6.44-1.07h-2.82L729.98,129.31L729.98,129.31z"/>
	<path id="XMLID_161_" class="st2" d="M760.03,107.31h9.79v19.05c1.88-1.74,3.89-2.95,5.77-3.62c1.88-0.67,3.89-1.21,5.9-1.21
		c3.89,0,7.11,1.34,9.79,4.03c2.28,2.28,3.35,5.77,3.35,10.2v25.9h-9.66v-17.17c0-4.56-0.27-7.51-0.67-9.26
		c-0.4-1.61-1.21-2.82-2.15-3.62c-1.07-0.81-2.28-1.21-3.89-1.21c-2.01,0-3.62,0.67-5.1,2.01c-1.48,1.34-2.42,3.22-2.95,5.37
		c-0.27,1.21-0.4,3.89-0.4,8.05v15.7h-9.66v-54.21H760.03z"/>
	<path id="XMLID_163_" class="st2" d="M799.88,122.33h9.93l10.2,24.55l11.27-24.55h10.06l-24.55,53.4h-10.06l8.05-17.31
		L799.88,122.33z"/>
	<path id="XMLID_165_" class="st2" d="M870.86,127.83l-6.04,6.04c-2.42-2.42-4.7-3.62-6.71-3.62c-1.07,0-2.01,0.27-2.68,0.67
		c-0.67,0.4-0.94,1.07-0.94,1.74c0,0.54,0.27,1.07,0.67,1.48c0.4,0.4,1.34,1.07,2.95,1.74l3.62,1.74c3.76,1.88,6.44,3.76,7.78,5.64
		c1.34,1.88,2.15,4.16,2.15,6.84c0,3.49-1.21,6.44-3.76,8.72c-2.55,2.28-6.04,3.49-10.33,3.49c-5.64,0-10.33-2.15-13.69-6.71
		l6.04-6.57c1.21,1.34,2.55,2.42,4.03,3.22c1.61,0.81,2.95,1.21,4.16,1.21c1.21,0,2.28-0.27,3.22-0.94c0.8-0.67,1.21-1.34,1.21-2.15
		c0-1.48-1.48-2.95-4.29-4.43l-3.22-1.74c-6.31-3.22-9.53-7.11-9.53-11.94c0-3.09,1.21-5.77,3.62-7.92c2.42-2.15,5.5-3.22,9.12-3.22
		c2.55,0,4.96,0.54,7.11,1.74S869.25,125.69,870.86,127.83z"/>
	<path id="XMLID_167_" class="st2" d="M883.07,106.23c1.74,0,3.22,0.67,4.43,1.88c1.21,1.21,1.88,2.68,1.88,4.56
		c0,1.74-0.67,3.22-1.74,4.56c-1.21,1.21-2.68,1.88-4.43,1.88s-3.22-0.67-4.43-1.88c-1.21-1.21-1.88-2.68-1.88-4.56
		c0-1.74,0.67-3.22,1.74-4.43C879.85,106.9,881.32,106.23,883.07,106.23z M878.24,122.33h9.79v39.18h-9.79V122.33z"/>
	<path id="XMLID_170_" class="st2" d="M935.13,130.25l-8.18,4.56c-1.61-1.61-3.09-2.68-4.56-3.35c-1.48-0.67-3.22-0.94-5.23-0.94
		c-3.62,0-6.57,1.07-8.99,3.22c-2.42,2.15-3.35,4.96-3.35,8.45c0,3.35,1.07,6.04,3.22,8.05c2.15,2.15,5.1,3.22,8.59,3.22
		c4.43,0,7.78-1.48,10.33-4.56l7.78,5.23c-4.16,5.5-10.06,8.18-17.71,8.18c-6.84,0-12.34-2.01-16.23-6.04
		c-3.89-4.16-5.9-8.86-5.9-14.36c0-3.76,0.94-7.25,2.82-10.47c1.88-3.22,4.56-5.64,7.92-7.51c3.35-1.74,7.11-2.68,11.4-2.68
		c3.89,0,7.38,0.67,10.47,2.28S933.11,127.43,935.13,130.25z"/>
	<path id="XMLID_172_" class="st2" d="M968,127.83l-6.04,6.04c-2.42-2.42-4.7-3.62-6.71-3.62c-1.07,0-2.01,0.27-2.68,0.67
		c-0.67,0.4-0.94,1.07-0.94,1.74c0,0.54,0.27,1.07,0.67,1.48c0.4,0.4,1.34,1.07,2.95,1.74l3.62,1.74c3.76,1.88,6.44,3.76,7.78,5.64
		c1.34,1.88,2.15,4.16,2.15,6.84c0,3.49-1.21,6.44-3.76,8.72s-6.04,3.49-10.33,3.49c-5.64,0-10.33-2.15-13.69-6.71l6.04-6.57
		c1.21,1.34,2.55,2.42,4.03,3.22c1.61,0.81,2.95,1.21,4.16,1.21c1.21,0,2.28-0.27,3.22-0.94c0.8-0.67,1.21-1.34,1.21-2.15
		c0-1.48-1.48-2.95-4.29-4.43l-3.22-1.74c-6.31-3.22-9.53-7.11-9.53-11.94c0-3.09,1.21-5.77,3.62-7.92c2.42-2.15,5.5-3.22,9.12-3.22
		c2.55,0,4.96,0.54,7.11,1.74C964.24,124.08,966.39,125.69,968,127.83z"/>
</g>
<g id="XMLID_31_">
	<path id="XMLID_2_" d="M627.87,217.46c1.61-2.68,9.66-18.65,10.33-19.72l0,0c2.42,4.03,9.12,16.77,11.14,19.59l-2.42,1.61
		c-0.54-1.07-3.49-6.84-3.89-7.25l-9.79,0.4c-0.4,0.54-2.68,6.04-3.09,6.98L627.87,217.46z M642.23,209.81
		c-0.27-0.67-3.76-7.25-4.03-7.65c-0.4,0.67-3.62,7.51-3.89,7.92L642.23,209.81z"/>
	<path id="XMLID_6_" d="M652.7,218.4c0.13-1.74,0.81-15.3,0.94-17.71h0.13c0.67,0.81,12.48,12.61,13.28,13.42
		c0-0.67,0-11.81,0.13-12.48l2.55,0.13c-0.13,1.48-0.54,11.27-0.67,17.31h-0.13c-0.67-0.67-13.01-13.01-13.42-13.28l0,0
		c0,0.4-0.13,12.21-0.13,13.01L652.7,218.4z"/>
	<path id="XMLID_8_" d="M682.48,210.89c0-5.37,3.89-9.66,10.06-9.66c4.96,0,8.59,2.95,8.59,8.18c0,3.76-2.68,9.39-10.06,9.39
		C685.57,218.8,682.48,215.18,682.48,210.89z M698.58,209.54c0-4.29-2.95-6.44-6.31-6.44c-4.43,0-7.11,3.35-7.11,7.38
		c0,3.62,2.42,6.44,6.31,6.44C695.23,216.92,698.58,214.24,698.58,209.54z"/>
	<path id="XMLID_20_" d="M705.29,218.4c0.13-1.74,0.81-15.3,0.94-17.71h0.13c0.67,0.81,12.48,12.61,13.28,13.42
		c0-0.67,0-11.81,0.13-12.48l2.55,0.13c-0.13,1.48-0.54,11.27-0.67,17.31h-0.13c-0.67-0.67-13.01-13.01-13.42-13.28l0,0
		c0,0.4-0.13,12.21-0.13,13.01L705.29,218.4z"/>
	<path id="XMLID_22_" d="M731.59,201.63c-0.13,0.54-0.27,5.23-0.27,8.32v6.57c0.67,0,3.62,0,6.44-0.13v2.28
		c-0.81,0-8.45-0.27-9.12-0.27c0.27-1.21,0.27-6.44,0.27-6.98v-3.22c0-0.4,0-6.17-0.13-6.57H731.59z"/>
	<path id="XMLID_24_" d="M745.14,211.15c0,2.42,0.13,6.71,0.13,7.25h-2.68c0-1.07,0.13-6.71,0.13-7.25v-2.55
		c0-0.4-0.13-6.31-0.13-6.84h2.68c0,0.4-0.13,4.03-0.13,6.98V211.15z"/>
	<path id="XMLID_27_" d="M751.71,218.4c0.13-1.74,0.81-15.3,0.94-17.71h0.13c0.67,0.81,12.48,12.61,13.28,13.42
		c0-0.67,0-11.81,0.13-12.48l2.55,0.13c-0.13,1.48-0.54,11.27-0.67,17.31h-0.13c-0.67-0.67-13.01-13.01-13.42-13.28l0,0
		c0,0.4-0.13,12.21-0.13,13.01L751.71,218.4z"/>
	<path id="XMLID_32_" d="M784.18,218.67c-0.8,0-8.59-0.27-9.12-0.27c0.13-1.21,0.13-6.44,0.13-6.98v-3.22c0-0.4,0-6.17-0.13-6.57
		c0.67,0,7.25-0.4,8.59-0.4l0.13,2.01c-1.07,0-5.77,0.13-6.17,0.13v5.9c0.54,0,3.76-0.13,5.23-0.27l0.13,2.01c-0.4,0-1.61,0-2.82,0
		c-1.21,0-2.28,0-2.55,0v5.64c0.67,0,4.03,0,6.44-0.13L784.18,218.67z"/>
	<path id="XMLID_34_" d="M811.29,214.64c0,0.94,0,3.09,0,3.35c-1.21,0.4-3.49,0.81-5.64,0.81c-5.77,0-9.26-3.09-9.26-6.98
		c0-2.82,2.95-8.18,12.34-10.6l0.54,2.15c-5.5,1.07-10.33,4.56-10.33,8.45c0,2.55,2.15,5.1,7.11,5.1c1.07,0,2.15-0.13,2.68-0.4
		v-3.89c0-0.67,0-1.48-0.13-1.61h2.55v1.88L811.29,214.64L811.29,214.64z"/>
	<path id="XMLID_36_" d="M813.84,217.73c1.34-2.42,8.72-15.97,9.26-16.91l0,0c2.15,3.35,8.32,14.22,9.93,16.77l-2.28,1.34
		c-0.4-0.94-3.09-5.64-3.35-6.04l-8.72,0.4c-0.4,0.81-2.28,4.96-2.68,5.77L813.84,217.73z M826.45,211.15
		c-0.27-0.54-3.22-5.9-3.49-6.31c-0.4,0.54-3.22,6.17-3.35,6.57L826.45,211.15z"/>
	<path id="XMLID_39_" d="M838.52,218.4c0.13-0.67,0.13-7.65,0.13-11.4v-3.35c-2.95,0-6.57,0.13-6.84,0.27v-2.28
		c0.67,0.13,6.84,0.27,7.11,0.27h2.28c0.54,0,6.04-0.13,6.84-0.27v2.28c0-0.13-4.83-0.27-6.84-0.27v3.76c0,4.83,0.27,10.6,0.27,11
		H838.52z"/>
	<path id="XMLID_41_" d="M860.53,218.67c-0.8,0-8.59-0.27-9.12-0.27c0.13-1.21,0.13-6.44,0.13-6.98v-3.22c0-0.4,0-6.17-0.13-6.57
		c0.67,0,7.25-0.4,8.59-0.4l0.13,2.01c-1.07,0-5.77,0.13-6.17,0.13v5.9c0.54,0,3.76-0.13,5.23-0.27l0.13,2.01c-0.4,0-1.61,0-2.82,0
		c-1.21,0-2.28,0-2.55,0v5.64c0.67,0,4.03,0,6.44-0.13L860.53,218.67z"/>
	<path id="XMLID_43_" d="M889.24,202.57c-0.27,0.67-6.31,14.62-6.98,15.97h-0.13c-0.94-1.74-5.37-8.59-6.04-9.66
		c-1.07,1.74-5.1,8.72-6.17,10.6h-0.13c-0.8-1.88-5.23-14.22-6.31-16.91l2.42-0.94c0.8,2.82,4.03,11.94,4.43,13.28
		c0.67-1.34,3.89-6.84,5.77-10.06l0,0c1.61,2.68,4.56,7.25,5.77,9.53c0.4-1.21,4.43-11.27,4.83-12.61L889.24,202.57z"/>
	<path id="XMLID_45_" d="M888.3,217.73c1.34-2.42,8.72-15.97,9.26-16.91l0,0c2.15,3.35,8.32,14.22,9.93,16.77l-2.28,1.34
		c-0.4-0.94-3.09-5.64-3.35-6.04l-8.72,0.4c-0.4,0.81-2.28,4.96-2.68,5.77L888.3,217.73z M900.91,211.15
		c-0.27-0.54-3.22-5.9-3.49-6.31c-0.4,0.54-3.22,6.17-3.35,6.57L900.91,211.15z"/>
	<path id="XMLID_48_" d="M912.85,218.4c0-0.54,0.13-3.09,0.13-3.35v-1.74c0-3.09-1.48-5.64-3.22-7.38
		c-1.07-1.07-2.42-2.01-3.49-2.42l1.07-2.01c1.34,0.67,3.09,1.88,3.76,2.68c1.21,1.34,2.82,3.22,3.35,5.1l0,0
		c0.8-2.01,1.74-3.35,3.09-4.83c1.07-1.21,3.35-2.55,4.56-2.95l0.67,2.01c-1.34,0.4-3.09,1.48-4.56,2.95
		c-1.74,1.88-2.95,4.43-2.95,6.98v2.15c0,0.4,0.13,2.42,0.13,2.95h-2.55V218.4z"/>
	<path id="XMLID_50_" d="M937.54,218.4c0.13-0.67,0.13-7.65,0.13-11.4v-3.35c-2.95,0-6.57,0.13-6.84,0.27v-2.28
		c0.67,0.13,6.84,0.27,7.11,0.27h2.28c0.54,0,6.04-0.13,6.84-0.27v2.28c0-0.13-4.83-0.27-6.84-0.27v3.76c0,4.83,0.27,10.6,0.27,11
		H937.54z"/>
	<path id="XMLID_52_" d="M947.47,210.89c0-5.37,3.89-9.66,10.06-9.66c4.96,0,8.59,2.95,8.59,8.18c0,3.76-2.68,9.39-10.06,9.39
		C950.56,218.8,947.47,215.18,947.47,210.89z M963.57,209.54c0-4.29-2.95-6.44-6.31-6.44c-4.43,0-7.11,3.35-7.11,7.38
		c0,3.62,2.42,6.44,6.31,6.44C960.22,216.92,963.57,214.24,963.57,209.54z"/>
	<path id="XMLID_55_" d="M983.03,218.4c0-0.54,0.13-3.09,0.13-3.35v-1.74c0-3.09-1.48-5.64-3.22-7.38
		c-1.07-1.07-2.42-2.01-3.49-2.42l1.07-2.01c1.34,0.67,3.09,1.88,3.76,2.68c1.21,1.34,2.82,3.22,3.35,5.1l0,0
		c0.8-2.01,1.74-3.35,3.09-4.83c1.07-1.21,3.35-2.55,4.56-2.95l0.67,2.01c-1.34,0.4-3.09,1.48-4.56,2.95
		c-1.74,1.88-2.95,4.43-2.95,6.98v2.15c0,0.4,0.13,2.42,0.13,2.95h-2.55L983.03,218.4L983.03,218.4z"/>
	<path id="XMLID_57_" d="M993.22,210.89c0-5.37,3.89-9.66,10.06-9.66c4.96,0,8.59,2.95,8.59,8.18c0,3.76-2.68,9.39-10.06,9.39
		C996.31,218.8,993.22,215.18,993.22,210.89z M1009.32,209.54c0-4.29-2.95-6.44-6.31-6.44c-4.43,0-7.11,3.35-7.11,7.38
		c0,3.62,2.42,6.44,6.31,6.44C1005.97,216.92,1009.32,214.24,1009.32,209.54z"/>
	<path id="XMLID_60_" d="M1018.31,207.4c0,3.89,0.27,5.64,1.21,7.25c0.94,1.61,2.42,2.28,4.29,2.28c2.15,0,3.49-1.07,4.29-2.28
		c1.21-1.74,1.21-4.56,1.21-8.45v-0.81c0-1.61-0.13-3.09-0.13-4.03h2.55c0,0.54,0,2.15,0,4.03v1.07c0,4.56-0.4,7.51-2.28,9.66
		c-1.48,1.74-3.35,2.55-6.04,2.55c-1.34,0-4.03-0.13-5.9-2.82c-1.21-1.74-1.74-3.62-1.74-9.53v-1.34c0-1.07,0-2.82,0-3.35h2.55
		c0,0.67-0.13,1.74-0.13,3.89L1018.31,207.4L1018.31,207.4z"/>
	<path id="XMLID_62_" d="M1040.18,211.15c0,0.94,0.13,6.98,0.13,7.38h-2.68c0.13-0.54,0-8.18,0-8.72v-1.88c0-0.67,0-5.64-0.13-6.17
		c1.21,0,3.49,0,5.64,0.13c3.35,0.4,5.37,1.74,5.37,3.89c0,2.01-1.48,3.62-3.62,4.96c0.67,0.94,5.23,5.77,5.9,6.57l-1.88,1.74
		c-0.27-0.4-6.04-7.38-6.84-8.45c1.21-0.67,3.89-1.88,3.89-4.29c0-1.07-0.94-2.55-5.64-2.55v7.38H1040.18z"/>
	<path id="XMLID_64_" d="M1063.53,207.93c0-0.54,0-5.5-0.13-6.17c1.48,0,4.03,0,6.31,0.13c8.32,0.67,9.12,4.56,9.12,6.31
		c0,7.65-8.72,10.47-15.43,10.47c0.13-1.07,0.13-6.98,0.13-7.65V207.93z M1065.94,216.52c6.84-0.4,10.2-4.29,10.2-7.78
		c0-3.76-3.76-5.23-10.2-5.1V216.52z"/>
	<path id="XMLID_67_" d="M1086.07,211.15c0,0.94,0.13,6.98,0.13,7.38h-2.68c0.13-0.54,0-8.18,0-8.72v-1.88c0-0.67,0-5.64-0.13-6.17
		c1.21,0,3.49,0,5.64,0.13c3.35,0.4,5.37,1.74,5.37,3.89c0,2.01-1.48,3.62-3.62,4.96c0.67,0.94,5.23,5.77,5.9,6.57l-1.88,1.74
		c-0.27-0.4-6.04-7.38-6.84-8.45c1.21-0.67,3.89-1.88,3.89-4.29c0-1.07-0.94-2.55-5.64-2.55v7.38H1086.07z"/>
	<path id="XMLID_69_" d="M1109.95,218.67c-0.8,0-8.59-0.27-9.12-0.27c0.13-1.21,0.13-6.44,0.13-6.98v-3.22c0-0.4,0-6.17-0.13-6.57
		c0.67,0,7.25-0.4,8.59-0.4l0.13,2.01c-1.07,0-5.77,0.13-6.17,0.13v5.9c0.54,0,3.76-0.13,5.23-0.27l0.13,2.01c-0.4,0-1.61,0-2.82,0
		c-1.21,0-2.28,0-2.55,0v5.64c0.67,0,4.03,0,6.44-0.13L1109.95,218.67z"/>
	<path id="XMLID_71_" d="M1112.64,217.73c1.34-2.42,8.72-15.97,9.26-16.91l0,0c2.15,3.35,8.32,14.22,9.93,16.77l-2.28,1.34
		c-0.4-0.94-3.09-5.64-3.35-6.04l-8.72,0.4c-0.4,0.81-2.28,4.96-2.68,5.77L1112.64,217.73z M1125.25,211.15
		c-0.27-0.54-3.22-5.9-3.49-6.31c-0.4,0.54-3.22,6.17-3.35,6.57L1125.25,211.15z"/>
	<path id="XMLID_74_" d="M1133.03,218.27c0.4-1.07,5.64-16.5,5.77-17.04h0.13c0.81,1.48,5.37,10.2,6.17,11.67
		c0.81-1.34,6.04-10.2,6.57-10.87h0.13c0.8,1.88,5.23,13.69,6.17,16.23l-2.28,0.94c-0.54-1.74-4.03-11.67-4.43-12.48
		c-0.8,1.34-5.23,8.59-6.31,10.33l0,0c-1.48-2.68-4.43-8.32-5.5-10.47c-0.4,1.48-3.62,11.67-3.89,12.61L1133.03,218.27z"/>
	<path id="XMLID_76_" d="M1173.28,211.15c0,2.42,0.13,6.71,0.13,7.25h-2.68c0-1.07,0.13-6.71,0.13-7.25v-2.55
		c0-0.4-0.13-6.31-0.13-6.84h2.68c0,0.4-0.13,4.03-0.13,6.98V211.15z"/>
	<path id="XMLID_78_" d="M1179.86,218.4c0.13-1.74,0.8-15.3,0.94-17.71h0.13c0.67,0.81,12.48,12.61,13.28,13.42
		c0-0.67,0-11.81,0.13-12.48l2.55,0.13c-0.13,1.48-0.54,11.27-0.67,17.31h-0.13c-0.67-0.67-13.01-13.01-13.42-13.28l0,0
		c0,0.4-0.13,12.21-0.13,13.01L1179.86,218.4z"/>
	<path id="XMLID_80_" d="M1202.67,216.92c2.55-0.54,5.9-1.61,5.9-3.49c0-1.21-0.94-1.88-2.68-2.68c-2.15-1.07-3.76-2.15-3.76-3.89
		c0-2.68,3.89-4.96,7.51-5.64l0.54,2.01c-1.61,0.27-5.5,1.21-5.5,3.35c0,1.34,1.88,1.88,2.95,2.55c1.88,1.07,3.62,1.88,3.62,3.89
		c0,2.42-2.82,4.96-7.92,6.04L1202.67,216.92z"/>
	<path id="XMLID_82_" d="M1219.84,218.4c0.13-0.67,0.13-7.65,0.13-11.4v-3.35c-2.95,0-6.57,0.13-6.84,0.27v-2.28
		c0.67,0.13,6.84,0.27,7.11,0.27h2.28c0.54,0,6.04-0.13,6.84-0.27v2.28c0-0.13-4.83-0.27-6.84-0.27v3.76c0,4.83,0.27,10.6,0.27,11
		H1219.84z"/>
	<path id="XMLID_84_" d="M1235.27,211.15c0,2.42,0.13,6.71,0.13,7.25h-2.68c0-1.07,0.13-6.71,0.13-7.25v-2.55
		c0-0.4-0.13-6.31-0.13-6.84h2.68c0,0.4-0.13,4.03-0.13,6.98V211.15z"/>
	<path id="XMLID_86_" d="M1245.6,218.4c0.13-0.67,0.13-7.65,0.13-11.4v-3.35c-2.95,0-6.57,0.13-6.84,0.27v-2.28
		c0.67,0.13,6.84,0.27,7.11,0.27h2.28c0.54,0,6.04-0.13,6.84-0.27v2.28c0-0.13-4.83-0.27-6.84-0.27v3.76c0,4.83,0.27,10.6,0.27,11
		H1245.6z"/>
	<path id="XMLID_88_" d="M1259.96,207.4c0,3.89,0.27,5.64,1.21,7.25c0.94,1.61,2.42,2.28,4.29,2.28c2.15,0,3.49-1.07,4.29-2.28
		c1.21-1.74,1.21-4.56,1.21-8.45v-0.81c0-1.61-0.13-3.09-0.13-4.03h2.55c0,0.54,0,2.15,0,4.03v1.07c0,4.56-0.4,7.51-2.28,9.66
		c-1.48,1.74-3.35,2.55-6.04,2.55c-1.34,0-4.03-0.13-5.9-2.82c-1.21-1.74-1.74-3.62-1.74-9.53v-1.34c0-1.07,0-2.82,0-3.35h2.55
		c0,0.67-0.13,1.74-0.13,3.89L1259.96,207.4L1259.96,207.4z"/>
	<path id="XMLID_90_" d="M1282.36,218.4c0.13-0.67,0.13-7.65,0.13-11.4v-3.35c-2.95,0-6.57,0.13-6.84,0.27v-2.28
		c0.67,0.13,6.84,0.27,7.11,0.27h2.28c0.54,0,6.04-0.13,6.84-0.27v2.28c0-0.13-4.83-0.27-6.84-0.27v3.76c0,4.83,0.27,10.6,0.27,11
		H1282.36z"/>
	<path id="XMLID_92_" d="M1304.37,218.67c-0.8,0-8.59-0.27-9.12-0.27c0.13-1.21,0.13-6.44,0.13-6.98v-3.22c0-0.4,0-6.17-0.13-6.57
		c0.67,0,7.25-0.4,8.59-0.4l0.13,2.01c-1.07,0-5.77,0.13-6.17,0.13v5.9c0.54,0,3.76-0.13,5.23-0.27l0.13,2.01c-0.4,0-1.61,0-2.82,0
		c-1.21,0-2.28,0-2.55,0v5.64c0.67,0,4.03,0,6.44-0.13L1304.37,218.67z"/>
</g>
<path id="XMLID_18_" class="st3" d="M434.4,145.41v55.41c-1.48-0.81-70.84-35.96-70.84-35.96V74.3l16.77,8.59v35.02
	C400.99,128.37,433.32,144.74,434.4,145.41z"/>
<line id="XMLID_15_" class="st4" x1="363.56" y1="165.13" x2="363.56" y2="165.13"/>
<path id="XMLID_17_" class="st5" d="M509.53,109.05c0,2.68,0,55.41,0,55.41v0.13l-54.21,27.64c0,17.17,0,33.81,0,35.02l-16.5,8.45
	v-90.57c0.13-0.13,0.27-0.13,0.27-0.13L509.53,109.05z"/>
<polygon id="XMLID_5_" class="st6" points="493.97,134.54 493.97,155.07 455.33,174.66 455.33,154.27 "/>
<path id="XMLID_14_" class="st6" d="M380.33,135.48L380.33,135.48l37.17,18.78c0,1.88,0,20.26,0,20.26v0.13l-37.17-18.92
	c0-0.13,0-0.27,0-0.27S380.33,137.9,380.33,135.48z"/>
<path id="XMLID_10_" class="st7" d="M367.18,70.01l16.77,8.59c3.49-1.88,7.25-3.89,11.67-5.77c3.35-1.48,6.57-2.68,9.53-3.62
	c2.28,1.21,37.84,19.19,37.84,19.19l-21.06,10.6c0,0-0.13,0.13-0.27,0.13c0.13,0.13,0.27,0.13,0.27,0.13l16.77,8.59
	c0,0,0.13,0.13,0.27,0.13c3.09-1.61,65.07-33.27,70.17-35.82c-5.64-2.95-11.4-6.04-17.04-8.99c-8.86-4.56-20.66-9.39-35.02-11.67
	c-24.96-4.03-44.68,1.21-55.95,4.43c-14.36,4.03-25.9,9.53-34.35,14.36"/>
<line id="XMLID_12_" class="st4" x1="458.95" y1="80.2" x2="476.93" y2="71.08"/>
<path id="XMLID_16_" class="st0" d="M476.93,71.08c0,0-6.71-3.22-12.61-6.17c-6.04-1.07-13.15-2.01-21.2-2.01
	c-5.77,0-11.14,0.4-15.97,1.07c6.04,3.09,31.93,16.23,31.93,16.23"/>
</svg>
